<mxfile host="app.diagrams.net" agent="Mozilla/5.0 (Windows NT 10.0; Win64; x64) AppleWebKit/537.36 (KHTML, like Gecko) Chrome/136.0.0.0 Safari/537.36 Edg/136.0.0.0" version="27.0.1">
  <diagram name="Page-1" id="dxVD0752MNKpgXRKl0Ao">
    <mxGraphModel dx="1975" dy="1796" grid="1" gridSize="10" guides="1" tooltips="1" connect="1" arrows="1" fold="1" page="1" pageScale="1" pageWidth="827" pageHeight="1169" math="0" shadow="0">
      <root>
        <mxCell id="0" />
        <mxCell id="1" parent="0" />
        <mxCell id="-UsWkp6bptkQwU81bYJW-17" style="edgeStyle=orthogonalEdgeStyle;rounded=0;orthogonalLoop=1;jettySize=auto;html=1;endArrow=none;endFill=0;startArrow=block;startFill=0;dashed=1;" edge="1" parent="1" source="-UsWkp6bptkQwU81bYJW-2" target="-UsWkp6bptkQwU81bYJW-10">
          <mxGeometry relative="1" as="geometry" />
        </mxCell>
        <mxCell id="-UsWkp6bptkQwU81bYJW-2" value="«interface»&lt;br&gt;&lt;b&gt;Identifiable&lt;/b&gt;" style="html=1;whiteSpace=wrap;" vertex="1" parent="1">
          <mxGeometry x="170" y="840" width="110" height="50" as="geometry" />
        </mxCell>
        <mxCell id="-UsWkp6bptkQwU81bYJW-4" value="&lt;span style=&quot;font-weight: 400;&quot;&gt;«abstract»&amp;nbsp;&lt;/span&gt;User" style="swimlane;fontStyle=1;align=center;verticalAlign=top;childLayout=stackLayout;horizontal=1;startSize=26;horizontalStack=0;resizeParent=1;resizeParentMax=0;resizeLast=0;collapsible=1;marginBottom=0;whiteSpace=wrap;html=1;" vertex="1" parent="1">
          <mxGeometry x="100" y="470" width="160" height="216" as="geometry" />
        </mxCell>
        <mxCell id="-UsWkp6bptkQwU81bYJW-5" value="- id: integer" style="text;strokeColor=none;fillColor=none;align=left;verticalAlign=top;spacingLeft=4;spacingRight=4;overflow=hidden;rotatable=0;points=[[0,0.5],[1,0.5]];portConstraint=eastwest;whiteSpace=wrap;html=1;" vertex="1" parent="-UsWkp6bptkQwU81bYJW-4">
          <mxGeometry y="26" width="160" height="26" as="geometry" />
        </mxCell>
        <mxCell id="-UsWkp6bptkQwU81bYJW-8" value="- nom: string" style="text;strokeColor=none;fillColor=none;align=left;verticalAlign=top;spacingLeft=4;spacingRight=4;overflow=hidden;rotatable=0;points=[[0,0.5],[1,0.5]];portConstraint=eastwest;whiteSpace=wrap;html=1;" vertex="1" parent="-UsWkp6bptkQwU81bYJW-4">
          <mxGeometry y="52" width="160" height="26" as="geometry" />
        </mxCell>
        <mxCell id="-UsWkp6bptkQwU81bYJW-9" value="- prenom: string" style="text;strokeColor=none;fillColor=none;align=left;verticalAlign=top;spacingLeft=4;spacingRight=4;overflow=hidden;rotatable=0;points=[[0,0.5],[1,0.5]];portConstraint=eastwest;whiteSpace=wrap;html=1;" vertex="1" parent="-UsWkp6bptkQwU81bYJW-4">
          <mxGeometry y="78" width="160" height="26" as="geometry" />
        </mxCell>
        <mxCell id="-UsWkp6bptkQwU81bYJW-10" value="- nip&lt;span style=&quot;background-color: transparent; color: light-dark(rgb(0, 0, 0), rgb(255, 255, 255));&quot;&gt;: string&lt;/span&gt;" style="text;strokeColor=none;fillColor=none;align=left;verticalAlign=top;spacingLeft=4;spacingRight=4;overflow=hidden;rotatable=0;points=[[0,0.5],[1,0.5]];portConstraint=eastwest;whiteSpace=wrap;html=1;" vertex="1" parent="-UsWkp6bptkQwU81bYJW-4">
          <mxGeometry y="104" width="160" height="26" as="geometry" />
        </mxCell>
        <mxCell id="-UsWkp6bptkQwU81bYJW-11" value="- adresse: string" style="text;strokeColor=none;fillColor=none;align=left;verticalAlign=top;spacingLeft=4;spacingRight=4;overflow=hidden;rotatable=0;points=[[0,0.5],[1,0.5]];portConstraint=eastwest;whiteSpace=wrap;html=1;" vertex="1" parent="-UsWkp6bptkQwU81bYJW-4">
          <mxGeometry y="130" width="160" height="26" as="geometry" />
        </mxCell>
        <mxCell id="-UsWkp6bptkQwU81bYJW-12" value="- email&lt;span style=&quot;background-color: transparent; color: light-dark(rgb(0, 0, 0), rgb(255, 255, 255));&quot;&gt;: string&lt;/span&gt;" style="text;strokeColor=none;fillColor=none;align=left;verticalAlign=top;spacingLeft=4;spacingRight=4;overflow=hidden;rotatable=0;points=[[0,0.5],[1,0.5]];portConstraint=eastwest;whiteSpace=wrap;html=1;" vertex="1" parent="-UsWkp6bptkQwU81bYJW-4">
          <mxGeometry y="156" width="160" height="26" as="geometry" />
        </mxCell>
        <mxCell id="-UsWkp6bptkQwU81bYJW-13" value="- telephone: string" style="text;strokeColor=none;fillColor=none;align=left;verticalAlign=top;spacingLeft=4;spacingRight=4;overflow=hidden;rotatable=0;points=[[0,0.5],[1,0.5]];portConstraint=eastwest;whiteSpace=wrap;html=1;" vertex="1" parent="-UsWkp6bptkQwU81bYJW-4">
          <mxGeometry y="182" width="160" height="26" as="geometry" />
        </mxCell>
        <mxCell id="-UsWkp6bptkQwU81bYJW-6" value="" style="line;strokeWidth=1;fillColor=none;align=left;verticalAlign=middle;spacingTop=-1;spacingLeft=3;spacingRight=3;rotatable=0;labelPosition=right;points=[];portConstraint=eastwest;strokeColor=inherit;" vertex="1" parent="-UsWkp6bptkQwU81bYJW-4">
          <mxGeometry y="208" width="160" height="8" as="geometry" />
        </mxCell>
        <mxCell id="-UsWkp6bptkQwU81bYJW-135" style="edgeStyle=orthogonalEdgeStyle;rounded=0;orthogonalLoop=1;jettySize=auto;html=1;endArrow=diamond;endFill=0;" edge="1" parent="1" source="-UsWkp6bptkQwU81bYJW-14" target="-UsWkp6bptkQwU81bYJW-130">
          <mxGeometry relative="1" as="geometry" />
        </mxCell>
        <mxCell id="-UsWkp6bptkQwU81bYJW-14" value="BankClient" style="swimlane;fontStyle=1;align=center;verticalAlign=middle;childLayout=stackLayout;horizontal=1;startSize=29;horizontalStack=0;resizeParent=1;resizeParentMax=0;resizeLast=0;collapsible=0;marginBottom=0;html=1;whiteSpace=wrap;" vertex="1" parent="1">
          <mxGeometry x="340" y="140" width="230" height="530" as="geometry" />
        </mxCell>
        <mxCell id="-UsWkp6bptkQwU81bYJW-15" value="&lt;div style=&quot;text-align: left;&quot;&gt;- List&amp;lt;BankAccount&amp;gt; comptes&lt;/div&gt;&lt;div style=&quot;text-align: left;&quot;&gt;- List&amp;lt;Notifications&amp;gt; notifications&lt;/div&gt;" style="text;html=1;strokeColor=#000000;fillColor=none;align=center;verticalAlign=middle;spacingLeft=4;spacingRight=4;overflow=hidden;rotatable=0;points=[[0,0.5],[1,0.5]];portConstraint=eastwest;whiteSpace=wrap;" vertex="1" parent="-UsWkp6bptkQwU81bYJW-14">
          <mxGeometry y="29" width="230" height="81" as="geometry" />
        </mxCell>
        <mxCell id="-UsWkp6bptkQwU81bYJW-16" value="+ requestNewAccount(BankAccount)" style="text;html=1;strokeColor=none;fillColor=none;align=left;verticalAlign=middle;spacingLeft=4;spacingRight=4;overflow=hidden;rotatable=0;points=[[0,0.5],[1,0.5]];portConstraint=eastwest;whiteSpace=wrap;" vertex="1" parent="-UsWkp6bptkQwU81bYJW-14">
          <mxGeometry y="110" width="230" height="30" as="geometry" />
        </mxCell>
        <mxCell id="-UsWkp6bptkQwU81bYJW-19" value="&lt;div&gt;+ requestDeleteAccount(BankAccount)&lt;/div&gt;" style="text;html=1;strokeColor=none;fillColor=none;align=left;verticalAlign=middle;spacingLeft=4;spacingRight=4;overflow=hidden;rotatable=0;points=[[0,0.5],[1,0.5]];portConstraint=eastwest;whiteSpace=wrap;" vertex="1" parent="-UsWkp6bptkQwU81bYJW-14">
          <mxGeometry y="140" width="230" height="30" as="geometry" />
        </mxCell>
        <mxCell id="-UsWkp6bptkQwU81bYJW-20" value="&lt;div&gt;+ requestDeleteAccount(BankAccount)&lt;/div&gt;" style="text;html=1;strokeColor=none;fillColor=none;align=left;verticalAlign=middle;spacingLeft=4;spacingRight=4;overflow=hidden;rotatable=0;points=[[0,0.5],[1,0.5]];portConstraint=eastwest;whiteSpace=wrap;" vertex="1" parent="-UsWkp6bptkQwU81bYJW-14">
          <mxGeometry y="170" width="230" height="30" as="geometry" />
        </mxCell>
        <mxCell id="-UsWkp6bptkQwU81bYJW-21" value="+ getInfo() : string" style="text;html=1;strokeColor=none;fillColor=none;align=left;verticalAlign=middle;spacingLeft=4;spacingRight=4;overflow=hidden;rotatable=0;points=[[0,0.5],[1,0.5]];portConstraint=eastwest;whiteSpace=wrap;" vertex="1" parent="-UsWkp6bptkQwU81bYJW-14">
          <mxGeometry y="200" width="230" height="30" as="geometry" />
        </mxCell>
        <mxCell id="-UsWkp6bptkQwU81bYJW-22" value="+ addBankAccount(BankAccount)" style="text;html=1;strokeColor=none;fillColor=none;align=left;verticalAlign=middle;spacingLeft=4;spacingRight=4;overflow=hidden;rotatable=0;points=[[0,0.5],[1,0.5]];portConstraint=eastwest;whiteSpace=wrap;" vertex="1" parent="-UsWkp6bptkQwU81bYJW-14">
          <mxGeometry y="230" width="230" height="30" as="geometry" />
        </mxCell>
        <mxCell id="-UsWkp6bptkQwU81bYJW-24" value="+ removeBankAccounts(BankAccount)" style="text;html=1;strokeColor=none;fillColor=none;align=left;verticalAlign=middle;spacingLeft=4;spacingRight=4;overflow=hidden;rotatable=0;points=[[0,0.5],[1,0.5]];portConstraint=eastwest;whiteSpace=wrap;" vertex="1" parent="-UsWkp6bptkQwU81bYJW-14">
          <mxGeometry y="260" width="230" height="30" as="geometry" />
        </mxCell>
        <mxCell id="-UsWkp6bptkQwU81bYJW-25" value="+ getBankAccounts(int)" style="text;html=1;strokeColor=none;fillColor=none;align=left;verticalAlign=middle;spacingLeft=4;spacingRight=4;overflow=hidden;rotatable=0;points=[[0,0.5],[1,0.5]];portConstraint=eastwest;whiteSpace=wrap;" vertex="1" parent="-UsWkp6bptkQwU81bYJW-14">
          <mxGeometry y="290" width="230" height="30" as="geometry" />
        </mxCell>
        <mxCell id="-UsWkp6bptkQwU81bYJW-26" value="+ makeTransaction(Transaction, BankAccount)" style="text;html=1;strokeColor=none;fillColor=none;align=left;verticalAlign=middle;spacingLeft=4;spacingRight=4;overflow=hidden;rotatable=0;points=[[0,0.5],[1,0.5]];portConstraint=eastwest;whiteSpace=wrap;" vertex="1" parent="-UsWkp6bptkQwU81bYJW-14">
          <mxGeometry y="320" width="230" height="30" as="geometry" />
        </mxCell>
        <mxCell id="-UsWkp6bptkQwU81bYJW-27" value="+ makeTransaction(Transaction, BankAccount)" style="text;html=1;strokeColor=none;fillColor=none;align=left;verticalAlign=middle;spacingLeft=4;spacingRight=4;overflow=hidden;rotatable=0;points=[[0,0.5],[1,0.5]];portConstraint=eastwest;whiteSpace=wrap;" vertex="1" parent="-UsWkp6bptkQwU81bYJW-14">
          <mxGeometry y="350" width="230" height="30" as="geometry" />
        </mxCell>
        <mxCell id="-UsWkp6bptkQwU81bYJW-29" value="+getBalance(BankAccount)" style="text;html=1;strokeColor=none;fillColor=none;align=left;verticalAlign=middle;spacingLeft=4;spacingRight=4;overflow=hidden;rotatable=0;points=[[0,0.5],[1,0.5]];portConstraint=eastwest;whiteSpace=wrap;" vertex="1" parent="-UsWkp6bptkQwU81bYJW-14">
          <mxGeometry y="380" width="230" height="30" as="geometry" />
        </mxCell>
        <mxCell id="-UsWkp6bptkQwU81bYJW-30" value="+checkTransactionHistory(): Transaction[]" style="text;html=1;strokeColor=none;fillColor=none;align=left;verticalAlign=middle;spacingLeft=4;spacingRight=4;overflow=hidden;rotatable=0;points=[[0,0.5],[1,0.5]];portConstraint=eastwest;whiteSpace=wrap;" vertex="1" parent="-UsWkp6bptkQwU81bYJW-14">
          <mxGeometry y="410" width="230" height="30" as="geometry" />
        </mxCell>
        <mxCell id="-UsWkp6bptkQwU81bYJW-31" value="+checkTransactionHistory(BankAccount): Transaction[]" style="text;html=1;strokeColor=none;fillColor=none;align=left;verticalAlign=middle;spacingLeft=4;spacingRight=4;overflow=hidden;rotatable=0;points=[[0,0.5],[1,0.5]];portConstraint=eastwest;whiteSpace=wrap;" vertex="1" parent="-UsWkp6bptkQwU81bYJW-14">
          <mxGeometry y="440" width="230" height="30" as="geometry" />
        </mxCell>
        <mxCell id="-UsWkp6bptkQwU81bYJW-32" value="+ addNotifications(Notification)" style="text;html=1;strokeColor=none;fillColor=none;align=left;verticalAlign=middle;spacingLeft=4;spacingRight=4;overflow=hidden;rotatable=0;points=[[0,0.5],[1,0.5]];portConstraint=eastwest;whiteSpace=wrap;" vertex="1" parent="-UsWkp6bptkQwU81bYJW-14">
          <mxGeometry y="470" width="230" height="30" as="geometry" />
        </mxCell>
        <mxCell id="-UsWkp6bptkQwU81bYJW-33" value="+ logout()" style="text;html=1;strokeColor=none;fillColor=none;align=left;verticalAlign=middle;spacingLeft=4;spacingRight=4;overflow=hidden;rotatable=0;points=[[0,0.5],[1,0.5]];portConstraint=eastwest;whiteSpace=wrap;" vertex="1" parent="-UsWkp6bptkQwU81bYJW-14">
          <mxGeometry y="500" width="230" height="30" as="geometry" />
        </mxCell>
        <mxCell id="-UsWkp6bptkQwU81bYJW-18" style="edgeStyle=orthogonalEdgeStyle;rounded=0;orthogonalLoop=1;jettySize=auto;html=1;endArrow=block;endFill=0;" edge="1" parent="1" source="-UsWkp6bptkQwU81bYJW-14" target="-UsWkp6bptkQwU81bYJW-4">
          <mxGeometry relative="1" as="geometry">
            <Array as="points">
              <mxPoint x="300" y="420" />
              <mxPoint x="300" y="578" />
            </Array>
          </mxGeometry>
        </mxCell>
        <mxCell id="-UsWkp6bptkQwU81bYJW-34" value="BankManager" style="swimlane;fontStyle=1;align=center;verticalAlign=middle;childLayout=stackLayout;horizontal=1;startSize=29;horizontalStack=0;resizeParent=1;resizeParentMax=0;resizeLast=0;collapsible=0;marginBottom=0;html=1;whiteSpace=wrap;" vertex="1" parent="1">
          <mxGeometry x="-210" y="360" width="140" height="180" as="geometry" />
        </mxCell>
        <mxCell id="-UsWkp6bptkQwU81bYJW-35" value="&lt;div&gt;- role : string&lt;/div&gt;" style="text;html=1;strokeColor=#000000;fillColor=none;align=center;verticalAlign=middle;spacingLeft=4;spacingRight=4;overflow=hidden;rotatable=0;points=[[0,0.5],[1,0.5]];portConstraint=eastwest;whiteSpace=wrap;" vertex="1" parent="-UsWkp6bptkQwU81bYJW-34">
          <mxGeometry y="29" width="140" height="31" as="geometry" />
        </mxCell>
        <mxCell id="-UsWkp6bptkQwU81bYJW-38" value="&lt;div&gt;+ hasTaskTodo() : bool&lt;/div&gt;" style="text;html=1;strokeColor=none;fillColor=none;align=left;verticalAlign=middle;spacingLeft=4;spacingRight=4;overflow=hidden;rotatable=0;points=[[0,0.5],[1,0.5]];portConstraint=eastwest;whiteSpace=wrap;" vertex="1" parent="-UsWkp6bptkQwU81bYJW-34">
          <mxGeometry y="60" width="140" height="30" as="geometry" />
        </mxCell>
        <mxCell id="-UsWkp6bptkQwU81bYJW-39" value="&lt;div&gt;+ getNextTask() : Task&lt;/div&gt;" style="text;html=1;strokeColor=none;fillColor=none;align=left;verticalAlign=middle;spacingLeft=4;spacingRight=4;overflow=hidden;rotatable=0;points=[[0,0.5],[1,0.5]];portConstraint=eastwest;whiteSpace=wrap;" vertex="1" parent="-UsWkp6bptkQwU81bYJW-34">
          <mxGeometry y="90" width="140" height="30" as="geometry" />
        </mxCell>
        <mxCell id="-UsWkp6bptkQwU81bYJW-124" value="&lt;div&gt;+ getInfo() : string&lt;/div&gt;" style="text;html=1;strokeColor=none;fillColor=none;align=left;verticalAlign=middle;spacingLeft=4;spacingRight=4;overflow=hidden;rotatable=0;points=[[0,0.5],[1,0.5]];portConstraint=eastwest;whiteSpace=wrap;" vertex="1" parent="-UsWkp6bptkQwU81bYJW-34">
          <mxGeometry y="120" width="140" height="30" as="geometry" />
        </mxCell>
        <mxCell id="-UsWkp6bptkQwU81bYJW-36" value="&lt;div&gt;+ updateTask()&lt;/div&gt;" style="text;html=1;strokeColor=none;fillColor=none;align=left;verticalAlign=middle;spacingLeft=4;spacingRight=4;overflow=hidden;rotatable=0;points=[[0,0.5],[1,0.5]];portConstraint=eastwest;whiteSpace=wrap;" vertex="1" parent="-UsWkp6bptkQwU81bYJW-34">
          <mxGeometry y="150" width="140" height="30" as="geometry" />
        </mxCell>
        <mxCell id="-UsWkp6bptkQwU81bYJW-37" style="edgeStyle=orthogonalEdgeStyle;rounded=0;orthogonalLoop=1;jettySize=auto;html=1;" edge="1" parent="1" source="-UsWkp6bptkQwU81bYJW-34" target="-UsWkp6bptkQwU81bYJW-4">
          <mxGeometry relative="1" as="geometry" />
        </mxCell>
        <mxCell id="-UsWkp6bptkQwU81bYJW-122" style="edgeStyle=orthogonalEdgeStyle;rounded=0;orthogonalLoop=1;jettySize=auto;html=1;endArrow=diamond;endFill=0;" edge="1" parent="1" source="-UsWkp6bptkQwU81bYJW-40" target="-UsWkp6bptkQwU81bYJW-114">
          <mxGeometry relative="1" as="geometry">
            <Array as="points">
              <mxPoint x="650" y="369" />
              <mxPoint x="650" y="50" />
              <mxPoint x="90" y="50" />
            </Array>
          </mxGeometry>
        </mxCell>
        <mxCell id="-UsWkp6bptkQwU81bYJW-40" value="&amp;lt;&amp;lt;abstract&amp;gt;&amp;gt; BankAccount" style="swimlane;fontStyle=1;align=center;verticalAlign=middle;childLayout=stackLayout;horizontal=1;startSize=29;horizontalStack=0;resizeParent=1;resizeParentMax=0;resizeLast=0;collapsible=0;marginBottom=0;html=1;whiteSpace=wrap;" vertex="1" parent="1">
          <mxGeometry x="730" y="224" width="250" height="290" as="geometry" />
        </mxCell>
        <mxCell id="-UsWkp6bptkQwU81bYJW-41" value="- ID : int&lt;div&gt;-userID : int&lt;/div&gt;&lt;div&gt;- banlance : double&lt;/div&gt;&lt;div&gt;- transactionHistory: Transaction[]&lt;/div&gt;&lt;div&gt;- creationDate : date&lt;/div&gt;" style="text;html=1;strokeColor=#000000;fillColor=none;align=left;verticalAlign=middle;spacingLeft=4;spacingRight=4;overflow=hidden;rotatable=0;points=[[0,0.5],[1,0.5]];portConstraint=eastwest;whiteSpace=wrap;" vertex="1" parent="-UsWkp6bptkQwU81bYJW-40">
          <mxGeometry y="29" width="250" height="91" as="geometry" />
        </mxCell>
        <mxCell id="-UsWkp6bptkQwU81bYJW-42" value="&lt;div&gt;&lt;br&gt;&lt;/div&gt;&lt;div&gt;&lt;span style=&quot;background-color: transparent; color: light-dark(rgb(0, 0, 0), rgb(255, 255, 255));&quot;&gt;+ deposit(double)&lt;/span&gt;&lt;/div&gt;&lt;div&gt;+ withdraw(double)&lt;br&gt;&lt;/div&gt;&lt;div&gt;+ transfer(BankAccount, double)&lt;br&gt;&lt;/div&gt;&lt;div&gt;+ getSortedTransactionHistory() : Transaction[]&lt;/div&gt;&lt;div&gt;+ doTransaction(Transaction)&lt;/div&gt;&lt;div&gt;+ addTransactionToHistory(Transaction)&lt;/div&gt;&lt;div&gt;+ generateNotification(BankClient) : Notification&lt;/div&gt;&lt;div&gt;+ applyNotification(BankClient)&lt;/div&gt;&lt;div&gt;&lt;br&gt;&lt;/div&gt;&lt;div&gt;&lt;br&gt;&lt;/div&gt;" style="text;html=1;strokeColor=none;fillColor=none;align=left;verticalAlign=middle;spacingLeft=4;spacingRight=4;overflow=hidden;rotatable=0;points=[[0,0.5],[1,0.5]];portConstraint=eastwest;whiteSpace=wrap;" vertex="1" parent="-UsWkp6bptkQwU81bYJW-40">
          <mxGeometry y="120" width="250" height="170" as="geometry" />
        </mxCell>
        <mxCell id="-UsWkp6bptkQwU81bYJW-46" style="edgeStyle=orthogonalEdgeStyle;rounded=0;orthogonalLoop=1;jettySize=auto;html=1;endArrow=diamond;endFill=0;" edge="1" parent="1" source="-UsWkp6bptkQwU81bYJW-40" target="-UsWkp6bptkQwU81bYJW-14">
          <mxGeometry relative="1" as="geometry" />
        </mxCell>
        <mxCell id="-UsWkp6bptkQwU81bYJW-47" value="CheckingAccount&lt;div&gt;&lt;br&gt;&lt;/div&gt;" style="swimlane;fontStyle=1;align=center;verticalAlign=top;childLayout=stackLayout;horizontal=1;startSize=26;horizontalStack=0;resizeParent=1;resizeParentMax=0;resizeLast=0;collapsible=1;marginBottom=0;whiteSpace=wrap;html=1;" vertex="1" parent="1">
          <mxGeometry x="1110" y="90" width="290" height="174" as="geometry" />
        </mxCell>
        <mxCell id="-UsWkp6bptkQwU81bYJW-48" value="- LIMIT_FREE_TRANSACTIONS: int" style="text;strokeColor=none;fillColor=none;align=left;verticalAlign=top;spacingLeft=4;spacingRight=4;overflow=hidden;rotatable=0;points=[[0,0.5],[1,0.5]];portConstraint=eastwest;whiteSpace=wrap;html=1;" vertex="1" parent="-UsWkp6bptkQwU81bYJW-47">
          <mxGeometry y="26" width="290" height="26" as="geometry" />
        </mxCell>
        <mxCell id="-UsWkp6bptkQwU81bYJW-51" value="- OVER_LIMIT_FEE : double" style="text;strokeColor=none;fillColor=none;align=left;verticalAlign=top;spacingLeft=4;spacingRight=4;overflow=hidden;rotatable=0;points=[[0,0.5],[1,0.5]];portConstraint=eastwest;whiteSpace=wrap;html=1;" vertex="1" parent="-UsWkp6bptkQwU81bYJW-47">
          <mxGeometry y="52" width="290" height="26" as="geometry" />
        </mxCell>
        <mxCell id="-UsWkp6bptkQwU81bYJW-49" value="" style="line;strokeWidth=1;fillColor=none;align=left;verticalAlign=middle;spacingTop=-1;spacingLeft=3;spacingRight=3;rotatable=0;labelPosition=right;points=[];portConstraint=eastwest;strokeColor=inherit;" vertex="1" parent="-UsWkp6bptkQwU81bYJW-47">
          <mxGeometry y="78" width="290" height="8" as="geometry" />
        </mxCell>
        <mxCell id="-UsWkp6bptkQwU81bYJW-50" value="- numberOfTransactionsWithFeeInCurrentMonth() : int" style="text;strokeColor=none;fillColor=none;align=left;verticalAlign=top;spacingLeft=4;spacingRight=4;overflow=hidden;rotatable=0;points=[[0,0.5],[1,0.5]];portConstraint=eastwest;whiteSpace=wrap;html=1;" vertex="1" parent="-UsWkp6bptkQwU81bYJW-47">
          <mxGeometry y="86" width="290" height="44" as="geometry" />
        </mxCell>
        <mxCell id="-UsWkp6bptkQwU81bYJW-52" value="+getFraisTransactionsSupplementaire() : double" style="text;strokeColor=none;fillColor=none;align=left;verticalAlign=top;spacingLeft=4;spacingRight=4;overflow=hidden;rotatable=0;points=[[0,0.5],[1,0.5]];portConstraint=eastwest;whiteSpace=wrap;html=1;" vertex="1" parent="-UsWkp6bptkQwU81bYJW-47">
          <mxGeometry y="130" width="290" height="44" as="geometry" />
        </mxCell>
        <mxCell id="-UsWkp6bptkQwU81bYJW-53" style="edgeStyle=orthogonalEdgeStyle;rounded=0;orthogonalLoop=1;jettySize=auto;html=1;endArrow=block;endFill=0;" edge="1" parent="1" source="-UsWkp6bptkQwU81bYJW-47" target="-UsWkp6bptkQwU81bYJW-40">
          <mxGeometry relative="1" as="geometry" />
        </mxCell>
        <mxCell id="-UsWkp6bptkQwU81bYJW-54" value="CreditAccount" style="swimlane;fontStyle=1;align=center;verticalAlign=top;childLayout=stackLayout;horizontal=1;startSize=26;horizontalStack=0;resizeParent=1;resizeParentMax=0;resizeLast=0;collapsible=1;marginBottom=0;whiteSpace=wrap;html=1;" vertex="1" parent="1">
          <mxGeometry x="1110" y="300" width="290" height="138" as="geometry" />
        </mxCell>
        <mxCell id="-UsWkp6bptkQwU81bYJW-55" value="- creditLimit : double" style="text;strokeColor=none;fillColor=none;align=left;verticalAlign=top;spacingLeft=4;spacingRight=4;overflow=hidden;rotatable=0;points=[[0,0.5],[1,0.5]];portConstraint=eastwest;whiteSpace=wrap;html=1;" vertex="1" parent="-UsWkp6bptkQwU81bYJW-54">
          <mxGeometry y="26" width="290" height="26" as="geometry" />
        </mxCell>
        <mxCell id="-UsWkp6bptkQwU81bYJW-59" value="- interestRate : double" style="text;strokeColor=none;fillColor=none;align=left;verticalAlign=top;spacingLeft=4;spacingRight=4;overflow=hidden;rotatable=0;points=[[0,0.5],[1,0.5]];portConstraint=eastwest;whiteSpace=wrap;html=1;" vertex="1" parent="-UsWkp6bptkQwU81bYJW-54">
          <mxGeometry y="52" width="290" height="26" as="geometry" />
        </mxCell>
        <mxCell id="-UsWkp6bptkQwU81bYJW-56" value="" style="line;strokeWidth=1;fillColor=none;align=left;verticalAlign=middle;spacingTop=-1;spacingLeft=3;spacingRight=3;rotatable=0;labelPosition=right;points=[];portConstraint=eastwest;strokeColor=inherit;" vertex="1" parent="-UsWkp6bptkQwU81bYJW-54">
          <mxGeometry y="78" width="290" height="8" as="geometry" />
        </mxCell>
        <mxCell id="-UsWkp6bptkQwU81bYJW-57" value="+ applyInterest()" style="text;strokeColor=none;fillColor=none;align=left;verticalAlign=top;spacingLeft=4;spacingRight=4;overflow=hidden;rotatable=0;points=[[0,0.5],[1,0.5]];portConstraint=eastwest;whiteSpace=wrap;html=1;" vertex="1" parent="-UsWkp6bptkQwU81bYJW-54">
          <mxGeometry y="86" width="290" height="26" as="geometry" />
        </mxCell>
        <mxCell id="-UsWkp6bptkQwU81bYJW-60" value="- interestApplied() : bool" style="text;strokeColor=none;fillColor=none;align=left;verticalAlign=top;spacingLeft=4;spacingRight=4;overflow=hidden;rotatable=0;points=[[0,0.5],[1,0.5]];portConstraint=eastwest;whiteSpace=wrap;html=1;" vertex="1" parent="-UsWkp6bptkQwU81bYJW-54">
          <mxGeometry y="112" width="290" height="26" as="geometry" />
        </mxCell>
        <mxCell id="-UsWkp6bptkQwU81bYJW-61" style="edgeStyle=orthogonalEdgeStyle;rounded=0;orthogonalLoop=1;jettySize=auto;html=1;endArrow=block;endFill=0;" edge="1" parent="1" source="-UsWkp6bptkQwU81bYJW-54" target="-UsWkp6bptkQwU81bYJW-40">
          <mxGeometry relative="1" as="geometry" />
        </mxCell>
        <mxCell id="-UsWkp6bptkQwU81bYJW-62" value="CurrencyAccount" style="swimlane;fontStyle=1;align=center;verticalAlign=top;childLayout=stackLayout;horizontal=1;startSize=26;horizontalStack=0;resizeParent=1;resizeParentMax=0;resizeLast=0;collapsible=1;marginBottom=0;whiteSpace=wrap;html=1;" vertex="1" parent="1">
          <mxGeometry x="1110" y="470" width="290" height="164" as="geometry" />
        </mxCell>
        <mxCell id="-UsWkp6bptkQwU81bYJW-63" value="- currency: Currency" style="text;strokeColor=none;fillColor=none;align=left;verticalAlign=top;spacingLeft=4;spacingRight=4;overflow=hidden;rotatable=0;points=[[0,0.5],[1,0.5]];portConstraint=eastwest;whiteSpace=wrap;html=1;" vertex="1" parent="-UsWkp6bptkQwU81bYJW-62">
          <mxGeometry y="26" width="290" height="26" as="geometry" />
        </mxCell>
        <mxCell id="-UsWkp6bptkQwU81bYJW-66" value="- exhangeRate : double" style="text;strokeColor=none;fillColor=none;align=left;verticalAlign=top;spacingLeft=4;spacingRight=4;overflow=hidden;rotatable=0;points=[[0,0.5],[1,0.5]];portConstraint=eastwest;whiteSpace=wrap;html=1;" vertex="1" parent="-UsWkp6bptkQwU81bYJW-62">
          <mxGeometry y="52" width="290" height="26" as="geometry" />
        </mxCell>
        <mxCell id="-UsWkp6bptkQwU81bYJW-64" value="" style="line;strokeWidth=1;fillColor=none;align=left;verticalAlign=middle;spacingTop=-1;spacingLeft=3;spacingRight=3;rotatable=0;labelPosition=right;points=[];portConstraint=eastwest;strokeColor=inherit;" vertex="1" parent="-UsWkp6bptkQwU81bYJW-62">
          <mxGeometry y="78" width="290" height="8" as="geometry" />
        </mxCell>
        <mxCell id="-UsWkp6bptkQwU81bYJW-65" value="+ doSameDeviseTransaction(Transaction)" style="text;strokeColor=none;fillColor=none;align=left;verticalAlign=top;spacingLeft=4;spacingRight=4;overflow=hidden;rotatable=0;points=[[0,0.5],[1,0.5]];portConstraint=eastwest;whiteSpace=wrap;html=1;" vertex="1" parent="-UsWkp6bptkQwU81bYJW-62">
          <mxGeometry y="86" width="290" height="26" as="geometry" />
        </mxCell>
        <mxCell id="-UsWkp6bptkQwU81bYJW-67" value="+ isActive() : bool" style="text;strokeColor=none;fillColor=none;align=left;verticalAlign=top;spacingLeft=4;spacingRight=4;overflow=hidden;rotatable=0;points=[[0,0.5],[1,0.5]];portConstraint=eastwest;whiteSpace=wrap;html=1;" vertex="1" parent="-UsWkp6bptkQwU81bYJW-62">
          <mxGeometry y="112" width="290" height="26" as="geometry" />
        </mxCell>
        <mxCell id="-UsWkp6bptkQwU81bYJW-68" value="- getMostRecentTransaction() : Transaction" style="text;strokeColor=none;fillColor=none;align=left;verticalAlign=top;spacingLeft=4;spacingRight=4;overflow=hidden;rotatable=0;points=[[0,0.5],[1,0.5]];portConstraint=eastwest;whiteSpace=wrap;html=1;" vertex="1" parent="-UsWkp6bptkQwU81bYJW-62">
          <mxGeometry y="138" width="290" height="26" as="geometry" />
        </mxCell>
        <mxCell id="-UsWkp6bptkQwU81bYJW-69" style="edgeStyle=orthogonalEdgeStyle;rounded=0;orthogonalLoop=1;jettySize=auto;html=1;endArrow=block;endFill=0;" edge="1" parent="1" source="-UsWkp6bptkQwU81bYJW-62" target="-UsWkp6bptkQwU81bYJW-40">
          <mxGeometry relative="1" as="geometry" />
        </mxCell>
        <mxCell id="-UsWkp6bptkQwU81bYJW-70" value="SavingAccount" style="swimlane;fontStyle=1;align=center;verticalAlign=top;childLayout=stackLayout;horizontal=1;startSize=26;horizontalStack=0;resizeParent=1;resizeParentMax=0;resizeLast=0;collapsible=1;marginBottom=0;whiteSpace=wrap;html=1;" vertex="1" parent="1">
          <mxGeometry x="1110" y="660" width="290" height="112" as="geometry" />
        </mxCell>
        <mxCell id="-UsWkp6bptkQwU81bYJW-71" value="- interestRate : double" style="text;strokeColor=none;fillColor=none;align=left;verticalAlign=top;spacingLeft=4;spacingRight=4;overflow=hidden;rotatable=0;points=[[0,0.5],[1,0.5]];portConstraint=eastwest;whiteSpace=wrap;html=1;" vertex="1" parent="-UsWkp6bptkQwU81bYJW-70">
          <mxGeometry y="26" width="290" height="26" as="geometry" />
        </mxCell>
        <mxCell id="-UsWkp6bptkQwU81bYJW-72" value="" style="line;strokeWidth=1;fillColor=none;align=left;verticalAlign=middle;spacingTop=-1;spacingLeft=3;spacingRight=3;rotatable=0;labelPosition=right;points=[];portConstraint=eastwest;strokeColor=inherit;" vertex="1" parent="-UsWkp6bptkQwU81bYJW-70">
          <mxGeometry y="52" width="290" height="8" as="geometry" />
        </mxCell>
        <mxCell id="-UsWkp6bptkQwU81bYJW-73" value="+ applyInterest()" style="text;strokeColor=none;fillColor=none;align=left;verticalAlign=top;spacingLeft=4;spacingRight=4;overflow=hidden;rotatable=0;points=[[0,0.5],[1,0.5]];portConstraint=eastwest;whiteSpace=wrap;html=1;" vertex="1" parent="-UsWkp6bptkQwU81bYJW-70">
          <mxGeometry y="60" width="290" height="26" as="geometry" />
        </mxCell>
        <mxCell id="-UsWkp6bptkQwU81bYJW-74" value="+ needInterest() : bool" style="text;strokeColor=none;fillColor=none;align=left;verticalAlign=top;spacingLeft=4;spacingRight=4;overflow=hidden;rotatable=0;points=[[0,0.5],[1,0.5]];portConstraint=eastwest;whiteSpace=wrap;html=1;" vertex="1" parent="-UsWkp6bptkQwU81bYJW-70">
          <mxGeometry y="86" width="290" height="26" as="geometry" />
        </mxCell>
        <mxCell id="-UsWkp6bptkQwU81bYJW-75" style="edgeStyle=orthogonalEdgeStyle;rounded=0;orthogonalLoop=1;jettySize=auto;html=1;endArrow=block;endFill=0;" edge="1" parent="1" source="-UsWkp6bptkQwU81bYJW-70" target="-UsWkp6bptkQwU81bYJW-40">
          <mxGeometry relative="1" as="geometry" />
        </mxCell>
        <mxCell id="-UsWkp6bptkQwU81bYJW-76" value="&lt;span style=&quot;font-weight: 400;&quot;&gt;«abstract» Transaction&lt;/span&gt;" style="swimlane;fontStyle=1;align=center;verticalAlign=top;childLayout=stackLayout;horizontal=1;startSize=26;horizontalStack=0;resizeParent=1;resizeParentMax=0;resizeLast=0;collapsible=1;marginBottom=0;whiteSpace=wrap;html=1;" vertex="1" parent="1">
          <mxGeometry x="720" y="-70" width="220" height="210" as="geometry" />
        </mxCell>
        <mxCell id="-UsWkp6bptkQwU81bYJW-77" value="+ ID : int" style="text;strokeColor=none;fillColor=none;align=left;verticalAlign=top;spacingLeft=4;spacingRight=4;overflow=hidden;rotatable=0;points=[[0,0.5],[1,0.5]];portConstraint=eastwest;whiteSpace=wrap;html=1;" vertex="1" parent="-UsWkp6bptkQwU81bYJW-76">
          <mxGeometry y="26" width="220" height="26" as="geometry" />
        </mxCell>
        <mxCell id="-UsWkp6bptkQwU81bYJW-80" value="- amount : double" style="text;strokeColor=none;fillColor=none;align=left;verticalAlign=top;spacingLeft=4;spacingRight=4;overflow=hidden;rotatable=0;points=[[0,0.5],[1,0.5]];portConstraint=eastwest;whiteSpace=wrap;html=1;" vertex="1" parent="-UsWkp6bptkQwU81bYJW-76">
          <mxGeometry y="52" width="220" height="26" as="geometry" />
        </mxCell>
        <mxCell id="-UsWkp6bptkQwU81bYJW-81" value="- type : string" style="text;strokeColor=none;fillColor=none;align=left;verticalAlign=top;spacingLeft=4;spacingRight=4;overflow=hidden;rotatable=0;points=[[0,0.5],[1,0.5]];portConstraint=eastwest;whiteSpace=wrap;html=1;" vertex="1" parent="-UsWkp6bptkQwU81bYJW-76">
          <mxGeometry y="78" width="220" height="26" as="geometry" />
        </mxCell>
        <mxCell id="-UsWkp6bptkQwU81bYJW-78" value="" style="line;strokeWidth=1;fillColor=none;align=left;verticalAlign=middle;spacingTop=-1;spacingLeft=3;spacingRight=3;rotatable=0;labelPosition=right;points=[];portConstraint=eastwest;strokeColor=inherit;" vertex="1" parent="-UsWkp6bptkQwU81bYJW-76">
          <mxGeometry y="104" width="220" height="8" as="geometry" />
        </mxCell>
        <mxCell id="-UsWkp6bptkQwU81bYJW-79" value="- updateBalance(BankAccount)" style="text;strokeColor=none;fillColor=none;align=left;verticalAlign=top;spacingLeft=4;spacingRight=4;overflow=hidden;rotatable=0;points=[[0,0.5],[1,0.5]];portConstraint=eastwest;whiteSpace=wrap;html=1;" vertex="1" parent="-UsWkp6bptkQwU81bYJW-76">
          <mxGeometry y="112" width="220" height="26" as="geometry" />
        </mxCell>
        <mxCell id="-UsWkp6bptkQwU81bYJW-82" value="+ applyTo(BankAccount)" style="text;strokeColor=none;fillColor=none;align=left;verticalAlign=top;spacingLeft=4;spacingRight=4;overflow=hidden;rotatable=0;points=[[0,0.5],[1,0.5]];portConstraint=eastwest;whiteSpace=wrap;html=1;" vertex="1" parent="-UsWkp6bptkQwU81bYJW-76">
          <mxGeometry y="138" width="220" height="26" as="geometry" />
        </mxCell>
        <mxCell id="-UsWkp6bptkQwU81bYJW-83" value="- generateTransactionRecord(double, double) : TransactionRecord" style="text;strokeColor=none;fillColor=none;align=left;verticalAlign=top;spacingLeft=4;spacingRight=4;overflow=hidden;rotatable=0;points=[[0,0.5],[1,0.5]];portConstraint=eastwest;whiteSpace=wrap;html=1;" vertex="1" parent="-UsWkp6bptkQwU81bYJW-76">
          <mxGeometry y="164" width="220" height="46" as="geometry" />
        </mxCell>
        <mxCell id="-UsWkp6bptkQwU81bYJW-84" style="edgeStyle=orthogonalEdgeStyle;rounded=0;orthogonalLoop=1;jettySize=auto;html=1;endArrow=diamond;endFill=0;" edge="1" parent="1" source="-UsWkp6bptkQwU81bYJW-76" target="-UsWkp6bptkQwU81bYJW-40">
          <mxGeometry relative="1" as="geometry" />
        </mxCell>
        <mxCell id="-UsWkp6bptkQwU81bYJW-89" style="edgeStyle=orthogonalEdgeStyle;rounded=0;orthogonalLoop=1;jettySize=auto;html=1;endArrow=block;endFill=0;" edge="1" parent="1" source="-UsWkp6bptkQwU81bYJW-85" target="-UsWkp6bptkQwU81bYJW-76">
          <mxGeometry relative="1" as="geometry" />
        </mxCell>
        <mxCell id="-UsWkp6bptkQwU81bYJW-85" value="Deposit" style="swimlane;fontStyle=0;childLayout=stackLayout;horizontal=1;startSize=26;fillColor=none;horizontalStack=0;resizeParent=1;resizeParentMax=0;resizeLast=0;collapsible=1;marginBottom=0;whiteSpace=wrap;html=1;" vertex="1" parent="1">
          <mxGeometry x="560" y="-150" width="140" height="52" as="geometry" />
        </mxCell>
        <mxCell id="-UsWkp6bptkQwU81bYJW-91" style="edgeStyle=orthogonalEdgeStyle;rounded=0;orthogonalLoop=1;jettySize=auto;html=1;endArrow=block;endFill=0;" edge="1" parent="1" source="-UsWkp6bptkQwU81bYJW-90" target="-UsWkp6bptkQwU81bYJW-76">
          <mxGeometry relative="1" as="geometry" />
        </mxCell>
        <mxCell id="-UsWkp6bptkQwU81bYJW-90" value="Withdraw" style="swimlane;fontStyle=0;childLayout=stackLayout;horizontal=1;startSize=26;fillColor=none;horizontalStack=0;resizeParent=1;resizeParentMax=0;resizeLast=0;collapsible=1;marginBottom=0;whiteSpace=wrap;html=1;" vertex="1" parent="1">
          <mxGeometry x="950" y="-150" width="140" height="52" as="geometry" />
        </mxCell>
        <mxCell id="-UsWkp6bptkQwU81bYJW-92" value="Transfer" style="swimlane;fontStyle=1;align=center;verticalAlign=top;childLayout=stackLayout;horizontal=1;startSize=26;horizontalStack=0;resizeParent=1;resizeParentMax=0;resizeLast=0;collapsible=1;marginBottom=0;whiteSpace=wrap;html=1;" vertex="1" parent="1">
          <mxGeometry x="715" y="-280" width="230" height="68" as="geometry" />
        </mxCell>
        <mxCell id="-UsWkp6bptkQwU81bYJW-93" value="- destinationAccount : BankAccount" style="text;strokeColor=none;fillColor=none;align=left;verticalAlign=top;spacingLeft=4;spacingRight=4;overflow=hidden;rotatable=0;points=[[0,0.5],[1,0.5]];portConstraint=eastwest;whiteSpace=wrap;html=1;" vertex="1" parent="-UsWkp6bptkQwU81bYJW-92">
          <mxGeometry y="26" width="230" height="34" as="geometry" />
        </mxCell>
        <mxCell id="-UsWkp6bptkQwU81bYJW-94" value="" style="line;strokeWidth=1;fillColor=none;align=left;verticalAlign=middle;spacingTop=-1;spacingLeft=3;spacingRight=3;rotatable=0;labelPosition=right;points=[];portConstraint=eastwest;strokeColor=inherit;" vertex="1" parent="-UsWkp6bptkQwU81bYJW-92">
          <mxGeometry y="60" width="230" height="8" as="geometry" />
        </mxCell>
        <mxCell id="-UsWkp6bptkQwU81bYJW-96" style="edgeStyle=orthogonalEdgeStyle;rounded=0;orthogonalLoop=1;jettySize=auto;html=1;endArrow=block;endFill=0;" edge="1" parent="1" source="-UsWkp6bptkQwU81bYJW-92" target="-UsWkp6bptkQwU81bYJW-76">
          <mxGeometry relative="1" as="geometry" />
        </mxCell>
        <mxCell id="-UsWkp6bptkQwU81bYJW-103" style="edgeStyle=orthogonalEdgeStyle;rounded=0;orthogonalLoop=1;jettySize=auto;html=1;endArrow=diamond;endFill=1;" edge="1" parent="1" source="-UsWkp6bptkQwU81bYJW-97" target="-UsWkp6bptkQwU81bYJW-14">
          <mxGeometry relative="1" as="geometry" />
        </mxCell>
        <mxCell id="-UsWkp6bptkQwU81bYJW-97" value="Notification" style="swimlane;fontStyle=1;align=center;verticalAlign=top;childLayout=stackLayout;horizontal=1;startSize=26;horizontalStack=0;resizeParent=1;resizeParentMax=0;resizeLast=0;collapsible=1;marginBottom=0;whiteSpace=wrap;html=1;" vertex="1" parent="1">
          <mxGeometry x="375" y="760" width="160" height="112" as="geometry" />
        </mxCell>
        <mxCell id="-UsWkp6bptkQwU81bYJW-98" value="- ID : int" style="text;strokeColor=none;fillColor=none;align=left;verticalAlign=top;spacingLeft=4;spacingRight=4;overflow=hidden;rotatable=0;points=[[0,0.5],[1,0.5]];portConstraint=eastwest;whiteSpace=wrap;html=1;" vertex="1" parent="-UsWkp6bptkQwU81bYJW-97">
          <mxGeometry y="26" width="160" height="26" as="geometry" />
        </mxCell>
        <mxCell id="-UsWkp6bptkQwU81bYJW-101" value="- message : string" style="text;strokeColor=none;fillColor=none;align=left;verticalAlign=top;spacingLeft=4;spacingRight=4;overflow=hidden;rotatable=0;points=[[0,0.5],[1,0.5]];portConstraint=eastwest;whiteSpace=wrap;html=1;" vertex="1" parent="-UsWkp6bptkQwU81bYJW-97">
          <mxGeometry y="52" width="160" height="26" as="geometry" />
        </mxCell>
        <mxCell id="-UsWkp6bptkQwU81bYJW-99" value="" style="line;strokeWidth=1;fillColor=none;align=left;verticalAlign=middle;spacingTop=-1;spacingLeft=3;spacingRight=3;rotatable=0;labelPosition=right;points=[];portConstraint=eastwest;strokeColor=inherit;" vertex="1" parent="-UsWkp6bptkQwU81bYJW-97">
          <mxGeometry y="78" width="160" height="8" as="geometry" />
        </mxCell>
        <mxCell id="-UsWkp6bptkQwU81bYJW-100" value="+ getMessage() : string" style="text;strokeColor=none;fillColor=none;align=left;verticalAlign=top;spacingLeft=4;spacingRight=4;overflow=hidden;rotatable=0;points=[[0,0.5],[1,0.5]];portConstraint=eastwest;whiteSpace=wrap;html=1;" vertex="1" parent="-UsWkp6bptkQwU81bYJW-97">
          <mxGeometry y="86" width="160" height="26" as="geometry" />
        </mxCell>
        <mxCell id="-UsWkp6bptkQwU81bYJW-113" style="edgeStyle=orthogonalEdgeStyle;rounded=0;orthogonalLoop=1;jettySize=auto;html=1;endArrow=diamondThin;endFill=1;" edge="1" parent="1" source="-UsWkp6bptkQwU81bYJW-104" target="-UsWkp6bptkQwU81bYJW-34">
          <mxGeometry relative="1" as="geometry">
            <mxPoint x="-200" y="90" as="sourcePoint" />
          </mxGeometry>
        </mxCell>
        <mxCell id="-UsWkp6bptkQwU81bYJW-104" value="Task" style="swimlane;fontStyle=1;align=center;verticalAlign=top;childLayout=stackLayout;horizontal=1;startSize=26;horizontalStack=0;resizeParent=1;resizeParentMax=0;resizeLast=0;collapsible=1;marginBottom=0;whiteSpace=wrap;html=1;" vertex="1" parent="1">
          <mxGeometry x="-280" y="80" width="160" height="216" as="geometry" />
        </mxCell>
        <mxCell id="-UsWkp6bptkQwU81bYJW-105" value="- ID : int" style="text;strokeColor=none;fillColor=none;align=left;verticalAlign=top;spacingLeft=4;spacingRight=4;overflow=hidden;rotatable=0;points=[[0,0.5],[1,0.5]];portConstraint=eastwest;whiteSpace=wrap;html=1;" vertex="1" parent="-UsWkp6bptkQwU81bYJW-104">
          <mxGeometry y="26" width="160" height="26" as="geometry" />
        </mxCell>
        <mxCell id="-UsWkp6bptkQwU81bYJW-108" value="- status : string" style="text;strokeColor=none;fillColor=none;align=left;verticalAlign=top;spacingLeft=4;spacingRight=4;overflow=hidden;rotatable=0;points=[[0,0.5],[1,0.5]];portConstraint=eastwest;whiteSpace=wrap;html=1;" vertex="1" parent="-UsWkp6bptkQwU81bYJW-104">
          <mxGeometry y="52" width="160" height="26" as="geometry" />
        </mxCell>
        <mxCell id="-UsWkp6bptkQwU81bYJW-109" value="- action : string" style="text;strokeColor=none;fillColor=none;align=left;verticalAlign=top;spacingLeft=4;spacingRight=4;overflow=hidden;rotatable=0;points=[[0,0.5],[1,0.5]];portConstraint=eastwest;whiteSpace=wrap;html=1;" vertex="1" parent="-UsWkp6bptkQwU81bYJW-104">
          <mxGeometry y="78" width="160" height="26" as="geometry" />
        </mxCell>
        <mxCell id="-UsWkp6bptkQwU81bYJW-106" value="" style="line;strokeWidth=1;fillColor=none;align=left;verticalAlign=middle;spacingTop=-1;spacingLeft=3;spacingRight=3;rotatable=0;labelPosition=right;points=[];portConstraint=eastwest;strokeColor=inherit;" vertex="1" parent="-UsWkp6bptkQwU81bYJW-104">
          <mxGeometry y="104" width="160" height="8" as="geometry" />
        </mxCell>
        <mxCell id="-UsWkp6bptkQwU81bYJW-107" value="- complete()" style="text;strokeColor=none;fillColor=none;align=left;verticalAlign=top;spacingLeft=4;spacingRight=4;overflow=hidden;rotatable=0;points=[[0,0.5],[1,0.5]];portConstraint=eastwest;whiteSpace=wrap;html=1;" vertex="1" parent="-UsWkp6bptkQwU81bYJW-104">
          <mxGeometry y="112" width="160" height="26" as="geometry" />
        </mxCell>
        <mxCell id="-UsWkp6bptkQwU81bYJW-111" value="+ approve()" style="text;strokeColor=none;fillColor=none;align=left;verticalAlign=top;spacingLeft=4;spacingRight=4;overflow=hidden;rotatable=0;points=[[0,0.5],[1,0.5]];portConstraint=eastwest;whiteSpace=wrap;html=1;" vertex="1" parent="-UsWkp6bptkQwU81bYJW-104">
          <mxGeometry y="138" width="160" height="26" as="geometry" />
        </mxCell>
        <mxCell id="-UsWkp6bptkQwU81bYJW-112" value="+ refuse()" style="text;strokeColor=none;fillColor=none;align=left;verticalAlign=top;spacingLeft=4;spacingRight=4;overflow=hidden;rotatable=0;points=[[0,0.5],[1,0.5]];portConstraint=eastwest;whiteSpace=wrap;html=1;" vertex="1" parent="-UsWkp6bptkQwU81bYJW-104">
          <mxGeometry y="164" width="160" height="26" as="geometry" />
        </mxCell>
        <mxCell id="-UsWkp6bptkQwU81bYJW-110" value="+ isDone() : bool" style="text;strokeColor=none;fillColor=none;align=left;verticalAlign=top;spacingLeft=4;spacingRight=4;overflow=hidden;rotatable=0;points=[[0,0.5],[1,0.5]];portConstraint=eastwest;whiteSpace=wrap;html=1;" vertex="1" parent="-UsWkp6bptkQwU81bYJW-104">
          <mxGeometry y="190" width="160" height="26" as="geometry" />
        </mxCell>
        <mxCell id="-UsWkp6bptkQwU81bYJW-120" style="edgeStyle=orthogonalEdgeStyle;rounded=0;orthogonalLoop=1;jettySize=auto;html=1;endArrow=block;endFill=0;" edge="1" parent="1" source="-UsWkp6bptkQwU81bYJW-114" target="-UsWkp6bptkQwU81bYJW-104">
          <mxGeometry relative="1" as="geometry" />
        </mxCell>
        <mxCell id="-UsWkp6bptkQwU81bYJW-121" style="edgeStyle=orthogonalEdgeStyle;rounded=0;orthogonalLoop=1;jettySize=auto;html=1;endArrow=none;startFill=0;startArrow=diamond;" edge="1" parent="1" source="-UsWkp6bptkQwU81bYJW-114" target="-UsWkp6bptkQwU81bYJW-14">
          <mxGeometry relative="1" as="geometry" />
        </mxCell>
        <mxCell id="-UsWkp6bptkQwU81bYJW-114" value="BankAccountTask" style="swimlane;fontStyle=1;align=center;verticalAlign=top;childLayout=stackLayout;horizontal=1;startSize=26;horizontalStack=0;resizeParent=1;resizeParentMax=0;resizeLast=0;collapsible=1;marginBottom=0;whiteSpace=wrap;html=1;" vertex="1" parent="1">
          <mxGeometry x="10" y="134" width="160" height="86" as="geometry" />
        </mxCell>
        <mxCell id="-UsWkp6bptkQwU81bYJW-115" value="- account : BankAccount" style="text;strokeColor=none;fillColor=none;align=left;verticalAlign=top;spacingLeft=4;spacingRight=4;overflow=hidden;rotatable=0;points=[[0,0.5],[1,0.5]];portConstraint=eastwest;whiteSpace=wrap;html=1;" vertex="1" parent="-UsWkp6bptkQwU81bYJW-114">
          <mxGeometry y="26" width="160" height="26" as="geometry" />
        </mxCell>
        <mxCell id="-UsWkp6bptkQwU81bYJW-118" value="- client : BankClient" style="text;strokeColor=none;fillColor=none;align=left;verticalAlign=top;spacingLeft=4;spacingRight=4;overflow=hidden;rotatable=0;points=[[0,0.5],[1,0.5]];portConstraint=eastwest;whiteSpace=wrap;html=1;" vertex="1" parent="-UsWkp6bptkQwU81bYJW-114">
          <mxGeometry y="52" width="160" height="26" as="geometry" />
        </mxCell>
        <mxCell id="-UsWkp6bptkQwU81bYJW-116" value="" style="line;strokeWidth=1;fillColor=none;align=left;verticalAlign=middle;spacingTop=-1;spacingLeft=3;spacingRight=3;rotatable=0;labelPosition=right;points=[];portConstraint=eastwest;strokeColor=inherit;" vertex="1" parent="-UsWkp6bptkQwU81bYJW-114">
          <mxGeometry y="78" width="160" height="8" as="geometry" />
        </mxCell>
        <mxCell id="-UsWkp6bptkQwU81bYJW-125" style="edgeStyle=orthogonalEdgeStyle;rounded=0;orthogonalLoop=1;jettySize=auto;html=1;exitX=0;exitY=0.5;exitDx=0;exitDy=0;endArrow=block;endFill=0;dashed=1;" edge="1" parent="1" source="-UsWkp6bptkQwU81bYJW-98" target="-UsWkp6bptkQwU81bYJW-2">
          <mxGeometry relative="1" as="geometry" />
        </mxCell>
        <mxCell id="-UsWkp6bptkQwU81bYJW-126" style="edgeStyle=orthogonalEdgeStyle;rounded=0;orthogonalLoop=1;jettySize=auto;html=1;endArrow=block;endFill=0;dashed=1;" edge="1" parent="1" source="-UsWkp6bptkQwU81bYJW-40" target="-UsWkp6bptkQwU81bYJW-2">
          <mxGeometry relative="1" as="geometry">
            <Array as="points">
              <mxPoint x="855" y="960" />
              <mxPoint x="225" y="960" />
            </Array>
          </mxGeometry>
        </mxCell>
        <mxCell id="-UsWkp6bptkQwU81bYJW-127" style="edgeStyle=orthogonalEdgeStyle;rounded=0;orthogonalLoop=1;jettySize=auto;html=1;dashed=1;endArrow=block;endFill=0;" edge="1" parent="1" source="-UsWkp6bptkQwU81bYJW-34" target="-UsWkp6bptkQwU81bYJW-2">
          <mxGeometry relative="1" as="geometry">
            <Array as="points">
              <mxPoint x="-140" y="760" />
              <mxPoint x="225" y="760" />
            </Array>
          </mxGeometry>
        </mxCell>
        <mxCell id="-UsWkp6bptkQwU81bYJW-128" style="edgeStyle=orthogonalEdgeStyle;rounded=0;orthogonalLoop=1;jettySize=auto;html=1;exitX=0;exitY=0.5;exitDx=0;exitDy=0;dashed=1;endArrow=block;endFill=0;" edge="1" parent="1" source="-UsWkp6bptkQwU81bYJW-110" target="-UsWkp6bptkQwU81bYJW-2">
          <mxGeometry relative="1" as="geometry">
            <Array as="points">
              <mxPoint x="-300" y="283" />
              <mxPoint x="-300" y="760" />
              <mxPoint x="225" y="760" />
            </Array>
          </mxGeometry>
        </mxCell>
        <mxCell id="-UsWkp6bptkQwU81bYJW-129" style="edgeStyle=orthogonalEdgeStyle;rounded=0;orthogonalLoop=1;jettySize=auto;html=1;exitX=0;exitY=0.5;exitDx=0;exitDy=0;dashed=1;endArrow=block;endFill=0;" edge="1" parent="1" source="-UsWkp6bptkQwU81bYJW-77" target="-UsWkp6bptkQwU81bYJW-2">
          <mxGeometry relative="1" as="geometry">
            <Array as="points">
              <mxPoint x="-300" y="-31" />
              <mxPoint x="-300" y="865" />
            </Array>
          </mxGeometry>
        </mxCell>
        <mxCell id="-UsWkp6bptkQwU81bYJW-130" value="BankClientTask" style="swimlane;fontStyle=1;align=center;verticalAlign=top;childLayout=stackLayout;horizontal=1;startSize=26;horizontalStack=0;resizeParent=1;resizeParentMax=0;resizeLast=0;collapsible=1;marginBottom=0;whiteSpace=wrap;html=1;" vertex="1" parent="1">
          <mxGeometry x="20" y="274" width="160" height="60" as="geometry" />
        </mxCell>
        <mxCell id="-UsWkp6bptkQwU81bYJW-131" value="- client : BankClient" style="text;strokeColor=none;fillColor=none;align=left;verticalAlign=top;spacingLeft=4;spacingRight=4;overflow=hidden;rotatable=0;points=[[0,0.5],[1,0.5]];portConstraint=eastwest;whiteSpace=wrap;html=1;" vertex="1" parent="-UsWkp6bptkQwU81bYJW-130">
          <mxGeometry y="26" width="160" height="26" as="geometry" />
        </mxCell>
        <mxCell id="-UsWkp6bptkQwU81bYJW-132" value="" style="line;strokeWidth=1;fillColor=none;align=left;verticalAlign=middle;spacingTop=-1;spacingLeft=3;spacingRight=3;rotatable=0;labelPosition=right;points=[];portConstraint=eastwest;strokeColor=inherit;" vertex="1" parent="-UsWkp6bptkQwU81bYJW-130">
          <mxGeometry y="52" width="160" height="8" as="geometry" />
        </mxCell>
        <mxCell id="-UsWkp6bptkQwU81bYJW-134" style="edgeStyle=orthogonalEdgeStyle;rounded=0;orthogonalLoop=1;jettySize=auto;html=1;endArrow=block;endFill=0;" edge="1" parent="1" source="-UsWkp6bptkQwU81bYJW-130" target="-UsWkp6bptkQwU81bYJW-104">
          <mxGeometry relative="1" as="geometry" />
        </mxCell>
      </root>
    </mxGraphModel>
  </diagram>
</mxfile>
